<svg width="44" height="42" viewBox="0 0 44 42" fill="none" xmlns="http://www.w3.org/2000/svg">
<path d="M43.4706 21C43.4706 22.6 43.2631 24.2 42.9518 25.7C42.5368 27.7 41.7069 29.5 40.7732 31.2H2.69823C2.38699 30.7 2.17949 30.3 1.972 29.8C0.727045 27.2 0.000820158 24.4 0.000820158 21.3V20.9C-0.102926 9.4 9.64924 0 21.6838 0C27.2861 0 32.3697 2 36.2083 5.4C37.6608 6.6 38.9057 8 39.9432 9.6C42.2256 12.8 43.4706 16.8 43.4706 21Z" fill="#F64942"/>
<path d="M43.4706 20.9998C43.4706 22.5998 43.2631 24.1998 42.9519 25.6998C42.5369 27.6998 41.7069 29.4998 40.7732 31.1998C39.9432 32.6998 38.802 34.0998 37.6608 35.2998C35.2746 34.8998 32.4735 34.7998 27.0787 36.9998C22.4101 38.8998 22.0988 38.4998 17.2228 36.8998L13.0729 34.8998L9.64927 34.2998C9.13053 33.2998 8.8193 32.2998 8.6118 31.1998C8.50806 30.6998 8.50806 30.0998 8.50806 29.5998C8.50806 29.0998 8.6118 28.6998 8.71555 28.1998C8.71555 27.9998 8.8193 27.8998 8.8193 27.6998C8.8193 27.5998 8.92304 27.3998 8.92304 27.2998C9.44177 25.7998 10.3755 24.3998 11.7242 23.1998C12.9692 22.0998 14.6291 21.2998 16.704 20.7998C19.2977 20.3998 21.5801 19.8998 23.4475 19.3998L25.6262 18.7998C25.9375 18.6998 26.2487 18.5998 26.4562 18.4998C30.5023 17.1998 32.8885 15.6998 34.4447 14.2998L34.6521 14.0998L35.7934 12.9998C37.2458 11.4998 38.1795 10.1998 39.9432 9.2998C42.2256 12.7998 43.4706 16.7998 43.4706 20.9998Z" fill="#F4CE45"/>
<path d="M36.2083 5.3C34.7559 6.7 33.0959 7.9 31.2285 8.8C30.8135 9 30.2948 9.2 29.8798 9.4C29.776 9.4 29.776 9.5 29.6723 9.5C25.9374 11 21.7876 11.8 17.8452 12C16.3928 12.1 13.9028 12.1 11.1017 12.7H10.9979C9.85673 12.9 8.61177 13.3 7.36681 13.8C5.08439 14.8 2.80197 16.4 1.34952 18.9C0.830791 19.8 0.312059 20.6 0.000820158 21.3V20.9C-0.102926 9.4 9.64924 0 21.6838 0C27.2861 0 32.3697 2 36.2083 5.3Z" fill="#5B95BF"/>
<path d="M42.951 25.7002C42.536 27.7002 41.7061 29.5002 40.7723 31.2002C39.9424 32.7002 38.8012 34.1002 37.66 35.3002C33.6138 39.5002 27.9078 42.0002 21.683 42.0002C13.487 42.0002 6.43229 37.7002 2.69742 31.2002C2.38618 30.7002 2.17868 30.3002 1.97119 29.8002C3.83863 29.3002 5.60232 28.8002 7.46975 28.4002C7.88474 28.3002 8.29972 28.3002 8.61096 28.2002C8.71471 28.2002 8.81845 28.2002 9.02595 28.1002H9.33719C10.2709 27.9002 11.3084 27.8002 12.2421 27.8002C12.9683 27.8002 13.5908 27.7002 14.317 27.7002H15.4582C18.9856 28.0002 24.3804 29.7002 29.9827 29.3002C30.7089 29.2002 31.5389 29.2002 32.2651 29.0002C32.4726 29.0002 32.5764 28.9002 32.7839 28.9002C32.8876 28.9002 33.0951 28.8002 33.1989 28.8002C33.5101 28.7002 33.8213 28.7002 34.0288 28.6002C34.4438 28.5002 34.7551 28.4002 35.17 28.2002C35.4813 28.1002 35.7925 28.0002 36 27.9002C38.8012 26.9002 40.4611 26.1002 42.951 25.7002Z" fill="#EF90A4"/>
<path fill-rule="evenodd" clip-rule="evenodd" d="M21.8909 6.7998C22.6171 6.7998 23.2396 7.1998 23.5509 7.8998C23.5509 7.9998 23.6546 7.9998 23.6546 7.9998C23.6546 7.9998 23.7583 7.9998 23.7583 7.8998C24.0696 7.4998 24.5883 7.2998 25.107 7.2998C25.3145 7.2998 25.4183 7.2998 25.6258 7.3998C26.352 7.5998 26.8707 8.1998 26.9745 8.7998C26.9745 8.8998 27.0782 8.8998 27.182 8.8998H27.2857C27.597 8.6998 28.0119 8.5998 28.3232 8.5998C28.6344 8.5998 28.9457 8.6998 29.2569 8.7998C29.8794 9.1998 30.1906 9.7998 30.1906 10.4998C30.1906 10.5998 30.2944 10.6998 30.3981 10.6998H30.5019C30.7094 10.5998 30.9168 10.5998 31.1243 10.5998C31.5393 10.5998 32.0581 10.7998 32.3693 11.0998C32.888 11.5998 32.9918 12.3998 32.7843 12.9998C32.7843 13.0998 32.7843 13.1998 32.888 13.1998H33.0955C33.718 13.1998 34.3405 13.4998 34.6517 14.0998C35.0667 14.6998 34.963 15.4998 34.548 15.9998C34.4442 16.0998 34.548 16.1998 34.6517 16.1998C35.3779 16.2998 35.8967 16.7998 36.1042 17.4998C36.3117 18.1998 36.0004 18.8998 35.4817 19.2998C35.3779 19.3998 35.3779 19.4998 35.4817 19.5998C36.1042 19.8998 36.5191 20.4998 36.5191 21.1998C36.5191 21.8998 36.1042 22.4998 35.3779 22.7998C35.2742 22.7998 35.2742 22.9998 35.3779 23.0998C35.8967 23.4998 36.2079 24.1998 36.0004 24.8998C35.7929 25.5998 35.1705 26.0998 34.548 26.1998C34.4442 26.1998 34.3405 26.3998 34.4442 26.3998C34.8592 26.8998 34.8592 27.6998 34.548 28.2998C34.2367 28.8998 33.6143 29.1998 32.9918 29.1998H32.7843C32.6805 29.1998 32.5768 29.2998 32.6805 29.3998C32.888 29.9998 32.7843 30.6998 32.2656 31.1998C31.9543 31.4998 31.4356 31.6998 31.0206 31.6998C30.8131 31.6998 30.6056 31.6998 30.3981 31.5998H30.2944C30.1906 31.5998 30.0869 31.6998 30.0869 31.7998C30.1906 32.4998 29.7756 33.0998 29.1532 33.4998C28.8419 33.6998 28.5307 33.6998 28.2194 33.6998C27.8045 33.6998 27.4932 33.5998 27.182 33.3998H27.0782C26.9745 33.3998 26.9745 33.4998 26.8707 33.4998C26.767 34.1998 26.2483 34.6998 25.522 34.8998C25.3145 34.8998 25.2108 34.9998 25.0033 34.9998C24.4846 34.9998 23.9658 34.7998 23.5509 34.2998L23.4471 34.1998C23.3434 34.1998 23.3434 34.1998 23.3434 34.2998C23.0321 34.8998 22.4096 35.2998 21.6834 35.2998C20.9572 35.2998 20.3347 34.8998 20.0235 34.1998C20.0235 34.0998 19.9197 34.0998 19.9197 34.0998C19.9197 34.0998 19.816 34.0998 19.816 34.1998C19.5047 34.5998 18.986 34.7998 18.4673 34.7998C18.2598 34.7998 18.156 34.7998 17.9485 34.6998C17.2223 34.4998 16.7036 33.8998 16.5998 33.2998C16.5998 33.1998 16.4961 33.1998 16.3924 33.1998H16.2886C15.9774 33.3998 15.5624 33.4998 15.2511 33.4998C14.9399 33.4998 14.6287 33.3998 14.3174 33.2998C13.6949 32.8998 13.3837 32.2998 13.3837 31.5998C13.3837 31.4998 13.28 31.3998 13.1762 31.3998H13.0725C12.865 31.4998 12.6575 31.4998 12.45 31.4998C12.035 31.4998 11.5163 31.2998 11.205 30.9998C10.6863 30.4998 10.5826 29.6998 10.79 29.0998C10.79 28.9998 10.79 28.8998 10.6863 28.8998H10.4788C9.85633 28.8998 9.23385 28.5998 8.92261 27.9998C8.50762 27.3998 8.61137 26.5998 9.02636 26.0998C9.1301 25.9998 9.02636 25.8998 8.92261 25.8998C8.19639 25.7998 7.67765 25.2998 7.47016 24.5998C7.26267 23.8998 7.57391 23.1998 8.09264 22.7998C8.19639 22.6998 8.19639 22.5998 8.09264 22.4998C7.47016 22.1998 7.05518 21.5998 7.05518 20.8998C7.05518 20.1998 7.47016 19.5998 8.19639 19.2998C8.30013 19.2998 8.30013 19.0998 8.19639 18.9998C7.67765 18.5998 7.36641 17.8998 7.57391 17.1998C7.7814 16.4998 8.40388 15.9998 9.02636 15.8998C9.1301 15.8998 9.23385 15.6998 9.1301 15.6998C8.71512 15.1998 8.71512 14.3998 9.02636 13.7998C9.3376 13.1998 9.96007 12.8998 10.5826 12.8998H10.79C10.8938 12.8998 10.9975 12.7998 10.8938 12.6998C10.6863 12.0998 10.79 11.3998 11.3088 10.8998C11.62 10.5998 12.1387 10.3998 12.5537 10.3998C12.7612 10.3998 12.9687 10.3998 13.1762 10.4998H13.28C13.3837 10.4998 13.4875 10.3998 13.4875 10.2998C13.4875 9.5998 13.7987 8.9998 14.4212 8.5998C14.7324 8.3998 15.0436 8.3998 15.3549 8.3998C15.7699 8.3998 16.0811 8.4998 16.3924 8.6998H16.4961C16.5998 8.6998 16.5998 8.5998 16.7036 8.5998C16.8073 7.8998 17.3261 7.3998 18.0523 7.1998C18.2598 7.1998 18.3635 7.0998 18.571 7.0998C19.0898 7.0998 19.6085 7.2998 20.0235 7.7998L20.1272 7.8998C20.231 7.8998 20.231 7.8998 20.231 7.7998C20.5422 7.1998 21.1647 6.7998 21.8909 6.7998Z" fill="white"/>
<path fill-rule="evenodd" clip-rule="evenodd" d="M33.4072 19.6002H32.8884C31.851 19.6002 31.021 19.0002 30.606 18.2002C30.191 19.0002 29.3611 19.6002 28.3236 19.6002C27.4936 19.6002 26.8711 19.2002 26.3524 18.7002C26.2487 18.5002 26.1449 18.4002 26.0412 18.2002C25.9374 18.5002 25.7299 18.7002 25.5224 19.0002C25.1075 19.4002 24.485 19.7002 23.8625 19.7002C23.655 19.7002 23.5513 19.7002 23.3438 19.6002C22.5138 19.5002 21.8913 18.9002 21.5801 18.3002C21.1651 19.1002 20.3351 19.7002 19.2977 19.7002C18.2602 19.7002 17.4302 19.1002 17.0152 18.3002C16.6002 19.1002 15.7703 19.7002 14.7328 19.7002C13.6953 19.7002 12.8654 19.1002 12.4504 18.3002C12.0354 19.1002 11.2054 19.7002 10.168 19.7002H9.96048C9.13051 20.6002 9.64924 21.3002 11.7242 21.3002V25.7002C11.7242 26.5002 11.9317 27.2002 12.2429 27.9002C13.0729 29.5002 14.8366 30.7002 16.9115 31.3002C18.3639 31.8002 20.0239 32.0002 21.6838 32.0002C23.3438 32.0002 25.0037 31.8002 26.4562 31.3002C27.8049 30.9002 29.0498 30.2002 29.9835 29.4002C31.021 28.4002 31.6435 27.2002 31.6435 25.7002V21.3002C33.7184 21.2002 34.2371 20.5002 33.4072 19.6002ZM28.4273 25.7002C29.9835 25.7002 30.0873 27.9002 28.4273 27.9002C26.8711 27.9002 26.9749 25.7002 28.4273 25.7002ZM14.9403 27.9002C14.7328 27.9002 14.5253 27.9002 14.3178 27.7002C13.3841 27.2002 13.6953 25.6002 14.9403 25.6002C16.289 25.6002 16.4965 27.3002 15.459 27.7002C15.2515 27.8002 15.1478 27.9002 14.9403 27.9002Z" fill="black"/>
<path fill-rule="evenodd" clip-rule="evenodd" d="M37.9726 21.0998C37.9726 20.3998 37.7651 19.6998 37.3501 19.1998C37.5576 18.4998 37.6614 17.7998 37.4539 17.0998C37.2464 16.3998 36.8314 15.7998 36.3127 15.3998C36.4164 14.6998 36.2089 13.9998 35.8977 13.2998C35.5864 12.6998 34.964 12.2998 34.3415 11.9998C34.2377 11.2998 33.9265 10.5998 33.304 10.0998C32.7853 9.5998 32.1628 9.2998 31.4366 9.1998C31.4366 9.0998 31.3328 8.9998 31.3328 8.8998C31.0216 8.3998 30.6066 7.8998 29.9841 7.5998C29.4654 7.2998 28.8429 7.0998 28.2204 7.0998H27.9092C27.4942 6.5998 26.768 6.0998 26.0418 5.8998C25.7305 5.7998 25.4193 5.7998 25.1081 5.7998C24.6931 5.7998 24.2781 5.8998 23.8631 5.9998C23.2406 5.5998 22.5144 5.2998 21.7882 5.2998C21.0619 5.2998 20.3357 5.4998 19.817 5.8998C19.402 5.6998 18.987 5.6998 18.572 5.6998C18.2608 5.6998 17.9496 5.6998 17.6383 5.7998C16.9121 5.9998 16.2896 6.3998 15.8746 6.8998H15.4596C14.8372 6.8998 14.2147 7.0998 13.696 7.3998C13.0735 7.7998 12.5547 8.2998 12.2435 8.8998C11.5173 8.9998 10.7911 9.2998 10.2723 9.8998C9.75359 10.3998 9.44235 10.9998 9.3386 11.6998C8.71613 11.9998 8.09365 12.4998 7.67866 13.0998C7.47117 13.2998 7.36742 13.5998 7.36742 13.8998C7.26368 14.1998 7.15993 14.5998 7.26368 14.9998C6.74494 15.3998 6.22621 16.0998 6.01872 16.7998C5.81123 17.4998 5.91497 18.1998 6.12246 18.7998C5.70748 19.3998 5.39624 20.0998 5.39624 20.7998C5.39624 21.4998 5.60373 22.1998 6.01872 22.6998C5.70748 23.3998 5.70748 24.0998 5.91497 24.7998C6.12247 25.4998 6.53745 26.0998 7.05618 26.4998C6.95244 27.0998 7.05618 27.7998 7.36742 28.3998C7.36742 28.4998 7.47117 28.4998 7.47117 28.5998C7.67866 28.9998 7.9899 29.2998 8.40489 29.5998C8.61238 29.7998 8.81987 29.8998 9.02736 29.9998C9.13111 30.3998 9.23486 30.7998 9.44235 31.1998C9.5461 31.4998 9.75359 31.6998 9.96108 31.8998C10.4798 32.3998 11.1023 32.6998 11.8285 32.7998C12.1398 33.3998 12.6585 33.9998 13.281 34.3998C13.7997 34.6998 14.4222 34.8998 15.0447 34.8998H15.3559C15.7709 35.4998 16.4971 35.8998 17.2233 36.0998C17.5346 36.1998 17.8458 36.1998 18.157 36.1998C18.572 36.1998 18.987 36.0998 19.402 35.9998C20.0245 36.3998 20.7507 36.6998 21.4769 36.6998C22.2032 36.6998 22.9294 36.4998 23.4481 36.0998C23.8631 36.2998 24.2781 36.2998 24.6931 36.2998C25.0043 36.2998 25.3155 36.2998 25.6268 36.1998C26.353 35.9998 26.9755 35.5998 27.3905 35.0998H27.8055C28.4279 35.0998 29.0504 34.8998 29.5692 34.5998C30.1916 34.2998 30.7104 33.6998 31.0216 33.0998C31.7478 32.9998 32.4741 32.6998 32.9928 32.0998C33.304 31.7998 33.5115 31.4998 33.6153 31.1998L33.9265 30.2998C34.549 29.9998 35.1715 29.4998 35.5864 28.8998C35.7939 28.5998 35.8977 28.2998 36.0014 27.8998C36.1052 27.5998 36.1052 27.1998 36.1052 26.8998C36.7277 26.4998 37.1426 25.7998 37.3501 25.0998C37.5576 24.3998 37.4539 23.6998 37.2464 23.0998C37.6614 22.5998 37.9726 21.8998 37.9726 21.0998ZM35.0677 22.6998C34.964 22.7998 34.964 22.8998 35.0677 22.9998C35.5864 23.3998 35.7939 24.0998 35.6902 24.7998C35.4827 25.4998 34.8602 25.9998 34.2377 26.0998C34.134 26.0998 34.0302 26.1998 34.134 26.2998C34.549 26.7998 34.549 27.4998 34.2377 28.0998C34.0302 28.4998 33.6153 28.6998 33.304 28.8998C33.2003 28.8998 32.9928 28.9998 32.889 28.9998H32.5778C32.4741 28.9998 32.4741 28.9998 32.4741 29.0998V29.1998C32.6815 29.7998 32.5778 30.4998 32.0591 30.9998C31.9553 31.0998 31.8516 31.1998 31.6441 31.2998C31.3328 31.4998 31.0216 31.4998 30.7104 31.4998C30.5029 31.4998 30.2954 31.4998 30.0879 31.3998H29.9841C29.8804 31.3998 29.7766 31.4998 29.8804 31.5998C29.8804 32.1998 29.5692 32.8998 28.9467 33.1998C28.6354 33.3998 28.3242 33.3998 28.013 33.3998C27.598 33.3998 27.2867 33.2998 26.9755 33.0998H26.8717C26.768 33.0998 26.768 33.1998 26.6643 33.1998C26.5605 33.7998 26.0418 34.3998 25.4193 34.5998C25.3155 34.5998 25.1081 34.6998 25.0043 34.6998C24.4856 34.6998 23.9668 34.4998 23.5519 33.9998L23.4481 33.8998C23.3444 33.8998 23.3444 33.8998 23.3444 33.9998C23.0331 34.5998 22.4107 34.9998 21.6844 34.9998C20.9582 34.9998 20.3357 34.5998 20.0245 33.9998C20.0245 33.8998 19.9207 33.8998 19.817 33.8998H19.7132C19.402 34.2998 18.8833 34.4998 18.3645 34.4998C18.2608 34.4998 18.0533 34.4998 17.9496 34.3998C17.2233 34.1998 16.7046 33.5998 16.6009 32.9998C16.6009 32.8998 16.4971 32.8998 16.3934 32.8998H16.2896C15.9784 33.0998 15.6671 33.1998 15.2521 33.1998C14.9409 33.1998 14.6297 33.0998 14.3184 32.9998C13.696 32.5998 13.3847 31.9998 13.4885 31.2998V31.1998L13.3847 31.0998H13.281C13.1772 31.0998 13.0735 31.1998 12.9697 31.1998H12.451C12.036 31.1998 11.7248 30.9998 11.4135 30.6998C10.8948 30.1998 10.7911 29.4998 10.9985 28.7998C10.9985 28.6998 10.9985 28.5998 10.7911 28.5998H10.6873C10.1686 28.5998 9.75359 28.3998 9.3386 28.0998C9.23486 28.0998 9.13111 27.9998 9.02736 27.7998C8.92362 27.5998 8.81987 27.4998 8.81987 27.2998C8.71613 26.7998 8.81987 26.2998 9.13111 25.8998C9.23486 25.7998 9.13111 25.6998 9.02736 25.6998C8.40489 25.5998 7.78241 25.0998 7.57491 24.4998C7.36742 23.7998 7.67866 23.0998 8.19739 22.6998C8.30114 22.5998 8.30114 22.4998 8.19739 22.3998C7.57491 22.0998 7.15993 21.4998 7.15993 20.7998C7.15993 20.0998 7.57491 19.4998 8.19739 19.1998C8.30114 19.1998 8.30114 18.9998 8.19739 18.8998C7.67866 18.4998 7.47117 17.7998 7.57491 17.0998C7.88615 16.4998 8.50863 16.0998 9.23486 15.9998C9.3386 15.9998 9.44235 15.8998 9.3386 15.7998C8.92362 15.2998 8.92362 14.4998 9.23486 13.8998C9.5461 13.3998 10.1686 12.9998 10.7911 12.9998H10.9985C11.1023 12.9998 11.206 12.8998 11.1023 12.7998V12.5998C10.8948 11.9998 11.1023 11.3998 11.5173 10.8998C11.8285 10.5998 12.3472 10.3998 12.7622 10.3998C12.9697 10.3998 13.1772 10.3998 13.3847 10.4998H13.4885C13.5922 10.4998 13.696 10.3998 13.5922 10.2998C13.5922 9.5998 13.9034 8.9998 14.5259 8.6998C14.8372 8.4998 15.1484 8.4998 15.4596 8.4998C15.8746 8.4998 16.1859 8.5998 16.4971 8.7998H16.6009C16.7046 8.7998 16.7046 8.7998 16.8083 8.6998C16.9121 8.0998 17.4308 7.4998 18.0533 7.2998C18.157 7.2998 18.3645 7.1998 18.4683 7.1998C18.987 7.1998 19.5057 7.3998 19.9207 7.7998L20.0245 7.8998C20.1282 7.8998 20.1282 7.8998 20.1282 7.7998C20.4395 7.1998 21.0619 6.7998 21.7882 6.7998C22.5144 6.7998 23.1369 7.1998 23.4481 7.7998C23.4481 7.8998 23.5519 7.8998 23.6556 7.8998C23.6556 7.8998 23.7594 7.8998 23.7594 7.7998C24.0706 7.3998 24.5893 7.1998 25.1081 7.1998C25.2118 7.1998 25.4193 7.1998 25.523 7.2998C26.353 7.6998 26.768 8.2998 26.8717 8.9998C26.8717 9.0998 26.9755 9.0998 27.0792 9.0998H27.183C27.4942 8.8998 27.8055 8.7998 28.2204 8.7998C28.5317 8.7998 28.8429 8.8998 29.1542 8.9998C29.3617 9.1998 29.6729 9.39981 29.7766 9.5998C29.9841 9.89981 30.0879 10.2998 30.0879 10.6998C30.0879 10.7998 30.1916 10.8998 30.2954 10.8998H30.3991C30.6066 10.7998 30.8141 10.7998 31.0216 10.7998C31.4366 10.7998 31.9553 10.9998 32.2666 11.2998C32.7853 11.7998 32.889 12.4998 32.6815 13.1998C32.6815 13.2998 32.6815 13.3998 32.889 13.3998H32.9928C33.6153 13.3998 34.2377 13.6998 34.549 14.2998C34.6527 14.3998 34.6527 14.4998 34.7565 14.6998C34.964 15.1998 34.7565 15.7998 34.4452 16.1998C34.3415 16.2998 34.4452 16.3998 34.549 16.3998C35.2752 16.4998 35.7939 16.9998 36.0014 17.5998C36.2089 18.2998 35.8977 18.9998 35.379 19.3998C35.2752 19.4998 35.2752 19.5998 35.379 19.6998C36.0014 19.9998 36.4164 20.5998 36.4164 21.2998C36.2089 21.8998 35.6902 22.4998 35.0677 22.6998Z" fill="black"/>
</svg>
